<?xml version="1.0" encoding="utf-8"?>
<!-- Generator: Adobe Illustrator 20.0.0, SVG Export Plug-In . SVG Version: 6.00 Build 0)  -->
<svg version="1.1" id="Capa_1" xmlns="http://www.w3.org/2000/svg" xmlns:xlink="http://www.w3.org/1999/xlink" x="0px" y="0px"
	 viewBox="0 0 512 512" style="enable-background:new 0 0 512 512;" xml:space="preserve">
<style type="text/css">
	.st0{fill:#FFFFFF;}
</style>
<g>
	<g id="_x37__43_">
		<g>
			<path class="st0" d="M337.9,247.4l-65.9,66V144c0-8.8-7.2-16-16-16s-16,7.2-16,16v169.4l-65.9-65.9c-6.3-6.3-16.4-6.3-22.6,0
				c-6.3,6.3-6.3,16.4,0,22.6l90.5,90.5c3.8,3.8,9.1,5,14.1,4.1c5,0.9,10.2-0.3,14.1-4.1l90.5-90.5c6.3-6.3,6.3-16.4,0-22.6
				C354.3,241.2,344.2,241.2,337.9,247.4z M256,0C114.6,0,0,114.6,0,256s114.6,256,256,256s256-114.6,256-256S397.4,0,256,0z
				 M256,480C132.3,480,32,379.7,32,256S132.3,32,256,32s224,100.3,224,224S379.7,480,256,480z"/>
		</g>
	</g>
</g>
</svg>
